HIERARCHY
ROOT root
{
	OFFSET	0	13.1	24.9
	CHANNELS 6  Xposition Yposition Zposition Xrotation Yrotation Zrotation
	JOINT spine_1
	{
		OFFSET	0	9.99999	0
		CHANNELS 3  Xrotation Yrotation Zrotation
		JOINT spine_2
		{
			OFFSET	0	112	-10
			CHANNELS 3  Xrotation Yrotation Zrotation
			JOINT spine_3
			{
				OFFSET	0	206.5	19.3
				CHANNELS 3  Xrotation Yrotation Zrotation
				JOINT spine_4
				{
					OFFSET	0	110.4	14.6
					CHANNELS 3  Xrotation Yrotation Zrotation
					JOINT neck_1
					{
						OFFSET	0	71.8	-50.3
						CHANNELS 3  Xrotation Yrotation Zrotation
						JOINT neck_2
						{
							OFFSET	0	86.2	-25.8
							CHANNELS 3  Xrotation Yrotation Zrotation
							JOINT head_ee
							{
								OFFSET	0	179.8	-8.7
								CHANNELS 3  Xrotation Yrotation Zrotation
								End Site
								{
									OFFSET	1	0	0
								}
							}
						}
					}
					JOINT left_clavicle
					{
						OFFSET	-43.2	22.4	-70.8
						CHANNELS 3  Xrotation Yrotation Zrotation
						JOINT left_shoulder
						{
							OFFSET	-93.9	-5.79999	48.7
							CHANNELS 3  Xrotation Yrotation Zrotation
							JOINT left_elbow
							{
								OFFSET	-291.4	-30.8	15.2
								CHANNELS 3  Xrotation Yrotation Zrotation
								JOINT left_lowarm_twist
								{
									OFFSET	-110.7	-3.89999	13.6
									CHANNELS 3  Xrotation Yrotation Zrotation
									JOINT left_hand
									{
										OFFSET	-110.7	-3.89999	13.6
										CHANNELS 3  Xrotation Yrotation Zrotation
										JOINT left_ee
										{
											OFFSET	-80.8	-5.10001	12.1
											CHANNELS 3  Xrotation Yrotation Zrotation
											End Site
											{
												OFFSET	1	0	0
											}
										}
									}
								}
							}
						}
					}
					JOINT right_clavicle
					{
						OFFSET	43.2	22.4	-70.8
						CHANNELS 3  Xrotation Yrotation Zrotation
						JOINT right_shoulder
						{
							OFFSET	93.9	-5.79999	48.7
							CHANNELS 3  Xrotation Yrotation Zrotation
							JOINT right_elbow
							{
								OFFSET	291.4	-30.8	15.2
								CHANNELS 3  Xrotation Yrotation Zrotation
								JOINT right_lowarm_twist
								{
									OFFSET	110.7	-3.89999	13.6
									CHANNELS 3  Xrotation Yrotation Zrotation
									JOINT right_hand
									{
										OFFSET	110.7	-3.89999	13.6
										CHANNELS 3  Xrotation Yrotation Zrotation
										JOINT right_ee
										{
											OFFSET	80.8	-5.10001	12.1
											CHANNELS 3  Xrotation Yrotation Zrotation
											End Site
											{
												OFFSET	1	0	0
											}
										}
									}
								}
							}
						}
					}
				}
			}
		}
	}
	JOINT left_hip
	{
		OFFSET	-82.8	-127.5	0.300001
		CHANNELS 3  Xrotation Yrotation Zrotation
		JOINT left_knee
		{
			OFFSET	-28.2	-396.7	2.2
			CHANNELS 3  Xrotation Yrotation Zrotation
			JOINT left_ankle
			{
				OFFSET	-11.7	-411.3	35.4
				CHANNELS 3  Xrotation Yrotation Zrotation
				JOINT left_toes
				{
					OFFSET	0	-60	-88.6
					CHANNELS 3  Xrotation Yrotation Zrotation
					JOINT left_foot_ee
					{
						OFFSET	-22.5	-16.5	-42.2
						CHANNELS 3  Xrotation Yrotation Zrotation
						End Site
						{
							OFFSET	1	0	0
						}
					}
				}
			}
		}
	}
	JOINT right_hip
	{
		OFFSET	82.8	-127.5	0.300001
		CHANNELS 3  Xrotation Yrotation Zrotation
		JOINT right_knee
		{
			OFFSET	28.2	-396.7	2.2
			CHANNELS 3  Xrotation Yrotation Zrotation
			JOINT right_ankle
			{
				OFFSET	11.7	-411.3	35.4
				CHANNELS 3  Xrotation Yrotation Zrotation
				JOINT right_toes
				{
					OFFSET	0	-60	-88.6
					CHANNELS 3  Xrotation Yrotation Zrotation
					JOINT right_foot_ee
					{
						OFFSET	22.5	-16.5	-42.2
						CHANNELS 3  Xrotation Yrotation Zrotation
						End Site
						{
							OFFSET	1	0	0
						}
					}
				}
			}
		}
	}
}
MOTION
Frames: 8
Frame Time: 0.02
2636.87 663.482 -1524.76 4.61962 59.7974 -1.90455 -2.99039 0.000662682 0.333502 -2.99032 -0.0205601 0.332868 -2.99038 -0.106692 0.315976 -2.99051 -0.0554511 0.32886 1.15375 25.2449 4.56917 2.7875 41.214 6.68901 -0.0 0.0 -0.0 4.91445 23.8266 9.48021 8.10423 -17.9765 59.8311 2.83006 -54.4893 1.45746 -30.3699 -1.98998 3.28682 -0.435491 22.167 6.33008 -0.0 0.0 -0.0 14.6742 20.1239 -30.1906 -18.7661 20.142 -60.7822 0.184789 5.23034 -0.00844026 -20.2852 1.1377 -2.3174 6.93248 -24.7298 -63.2561 0.0 0.0 0.0 -27.0385 29.0535 12.2734 -0.449193 0.0182353 0.0665215 37.3429 -1.83137 -4.65592 -18.1212 0.0 0.0 -0.0 0.0 -0.0 31.4659 24.5618 -18.7999 -2.34737 -0.0895081 -0.349098 12.0664 -28.1554 1.81629 -2.85424 0.0 0.0 0.0 0.0 0.0 
2612.93 658.927 -1526.91 4.29776 61.0318 -1.41009 -2.97753 -0.157302 0.0871479 -2.97754 -0.162528 0.0769617 -2.97779 -0.176971 0.0319325 -2.97775 -0.169707 0.0594811 2.36468 25.2081 3.78021 4.245 41.3451 5.42207 -0.0 0.0 -0.0 4.99875 25.358 9.53546 6.18035 -19.464 60.4161 2.77765 -53.9818 1.41493 -30.5316 -2.005 3.30111 -0.377494 22.511 6.80427 -0.0 0.0 -0.0 14.4604 20.117 -29.6797 -18.5515 20.4087 -60.8909 0.190485 5.39063 -0.0089674 -21.2494 1.21162 -2.41634 6.88645 -25.281 -62.5563 0.0 0.0 0.0 -27.495 29.2582 11.6401 -2.46 0.0934424 0.365936 36.9994 -1.48974 -4.62094 -17.8634 0.0 0.0 -0.0 0.0 -0.0 32.1974 24.5266 -18.7214 -6.84914 -0.220805 -1.02733 13.0127 -27.7904 1.94806 -1.0636 0.0 0.0 0.0 0.0 0.0 
2590.74 655.193 -1525.8 3.94061 62.6202 -0.927827 -2.99005 -0.135853 -0.0671086 -2.99006 -0.131307 -0.0756173 -2.98988 -0.107033 -0.107255 -2.98988 -0.122628 -0.0890047 2.58424 25.1606 3.72533 4.49178 41.2229 5.2948 -0.0 0.0 -0.0 4.96972 25.4977 9.49055 4.64234 -20.3969 61.9234 2.63186 -52.5021 1.29812 -30.5609 -2.00774 3.3037 -0.194586 22.654 7.92767 -0.0 0.0 -0.0 14.3546 20.1003 -29.4286 -18.4587 20.5656 -60.7298 0.196364 5.55599 -0.00952817 -22.4219 1.30374 -2.53497 6.87133 -25.7569 -62.3144 0.0 0.0 0.0 -27.7845 29.4394 11.3983 -2.80595 0.105319 0.417701 37.6151 -0.61015 -4.66958 -17.5276 0.0 0.0 -0.0 0.0 -0.0 32.925 24.48 -18.6715 -9.70171 -0.276262 -1.4615 11.0029 -29.7416 1.67969 -0.244171 0.0 0.0 0.0 0.0 0.0 
2561.6 658.702 -1527.95 4.43993 63.4783 -1.60075 -2.77388 -0.017552 -0.107698 -2.77387 -0.0106633 -0.108596 -2.77384 0.0176312 -0.107685 -2.77386 0.000403093 -0.109118 3.03042 23.9898 1.87374 4.97768 40.5175 3.05422 -0.0 0.0 -0.0 3.84706 24.5243 7.99995 5.12283 -20.9631 66.4785 2.07477 -45.7794 0.876056 -31.6115 -2.10638 3.39546 -0.0410904 23.5301 9.15124 -0.0 0.0 -0.0 14.3678 20.1586 -29.4557 -18.0599 21.0676 -60.7279 0.189758 5.37018 -0.00889926 -25.4288 1.55097 -2.83044 6.79239 -27.6936 -61.0363 0.0 0.0 0.0 -25.2794 28.2229 8.9255 -10.5423 0.288474 1.58991 37.7125 -0.566028 -4.67808 -16.4084 0.0 0.0 -0.0 0.0 -0.0 31.317 25.0878 -17.9081 -10.5297 -0.288304 -1.58798 9.47563 -25.8964 1.41844 -0.677156 0.0 0.0 0.0 0.0 0.0 
2534.47 661.004 -1532.71 4.12983 66.5979 -0.846622 -2.7703 -0.023662 -0.374744 -2.77022 0.00023173 -0.37549 -2.77013 0.0967938 -0.3628 -2.77031 0.038282 -0.373533 3.1647 22.5042 1.73305 4.84489 37.9499 2.90442 -0.0 0.0 -0.0 3.36843 24.5992 7.3521 4.58513 -21.985 69.7814 1.84586 -42.4352 0.716668 -33.2257 -2.26121 3.53291 -0.336258 23.43 7.40135 -0.0 0.0 -0.0 14.2524 19.7898 -29.2082 -17.6511 20.4108 -61.3893 0.170341 4.82344 -0.00717438 -27.8897 1.76467 -3.06243 6.61955 -29.7551 -58.512 0.0 0.0 0.0 -24.0168 23.3298 6.67567 -12.9564 0.313052 1.95947 35.6099 -0.0808652 -4.47835 -15.8727 0.0 0.0 -0.0 0.0 -0.0 30.2638 25.8351 -17.9852 -14.2129 -0.319679 -2.15214 10.3654 -23.9349 1.53123 1.32188 -0.0 -0.0 0.0 0.0 0.0 
2507.5 665.394 -1535.25 7.20097 66.2067 -4.69726 -3.02567 0.211218 -0.211637 -3.02567 0.224257 -0.197768 -3.02649 0.268171 -0.132241 -3.02643 0.243921 -0.172934 2.40812 22.394 1.07068 4.04962 38.546 2.35415 -0.0 0.0 -0.0 2.65985 24.6832 6.39966 2.70858 -22.2928 71.298 1.67945 -39.7554 0.607251 -32.5619 -2.19706 3.47691 0.0112799 24.4197 9.78063 -0.0 0.0 -0.0 14.3153 20.5809 -29.2982 -16.7397 21.1692 -61.5138 0.191667 5.42391 -0.00907895 -29.8565 1.94254 -3.24117 6.60463 -33.4753 -57.4858 0.0 0.0 0.0 -21.467 20.8251 5.3433 -22.4888 0.257779 3.41935 35.1049 1.00186 -4.42248 -14.9718 0.0 0.0 -0.0 0.0 -0.0 27.9987 26.4827 -16.7991 -17.7477 -0.315648 -2.69438 12.0952 -21.0491 1.75335 2.84543 -0.0 -0.0 0.0 0.0 0.0 
2480.79 676.831 -1540.61 8.23657 67.1465 -6.18065 -2.92068 0.248668 -0.269593 -2.92068 0.265319 -0.253223 -2.92191 0.321986 -0.175616 -2.92184 0.29021 -0.224264 0.916669 21.5187 2.31853 2.10612 36.4034 4.18884 -0.0 0.0 -0.0 2.49274 24.4104 6.16612 2.11449 -18.8524 73.934 1.40338 -34.8048 0.439876 -34.0104 -2.33785 3.59815 0.00353999 24.9203 9.91769 -0.0 0.0 -0.0 14.6435 22.1361 -29.9462 -15.5706 21.9127 -61.6456 0.176395 4.99401 -0.00769238 -32.6942 2.2098 -3.48813 6.49465 -33.3288 -56.2944 0.0 0.0 0.0 -19.6257 18.6135 3.31329 -26.6731 0.157049 4.05343 35.2539 0.719715 -4.43862 -16.4223 0.0 0.0 -0.0 0.0 -0.0 22.6959 28.0337 -14.5651 -13.5006 -0.316441 -2.04291 12.8268 -20.1891 1.84837 0.940306 -0.0 -0.0 0.0 0.0 0.0 
2457.08 680.02 -1546.66 10.0212 69.749 -7.94344 -2.98231 0.273348 -0.247114 -2.98232 0.288518 -0.229219 -2.98356 0.338311 -0.146046 -2.98345 0.311 -0.197643 0.218085 20.9003 2.19913 1.2513 35.5884 4.22536 -0.0 0.0 -0.0 2.14027 24.4177 5.69125 1.63141 -17.6943 75.3679 1.27454 -32.2656 0.36868 -35.1551 -2.45126 3.69143 -0.171305 25.1319 8.99455 -0.0 0.0 -0.0 14.7144 22.3268 -30.0975 -14.0357 21.7529 -62.3784 0.188584 5.33717 -0.0087898 -34.8953 2.42536 -3.67046 6.4202 -33.1413 -55.5342 0.0 0.0 0.0 -18.1654 15.5157 1.16771 -28.3092 0.105104 4.29915 33.8474 1.88054 -4.29466 -16.8978 0.0 0.0 -0.0 0.0 -0.0 19.019 28.702 -13.2015 -10.9165 -0.293302 -1.64712 14.2148 -17.0978 2.01693 0.448116 -0.0 -0.0 0.0 0.0 0.0 
